<svg xmlns="http://www.w3.org/2000/svg" viewBox="0 0 1705.91 428.56"><defs><style>.cls-1,.cls-2{fill:#fff;}.cls-2,.cls-5{stroke:#0d668d;}.cls-2,.cls-5,.cls-6{stroke-miterlimit:10;}.cls-3{fill:#0d668d;}.cls-4{fill:#0e668e;}.cls-5{fill:none;}.cls-6{fill:#23a9e0;stroke:#23a9e0;stroke-width:2px;}</style></defs><g id="Layer_2" data-name="Layer 2"><g id="Layer_1-2" data-name="Layer 1"><path class="cls-1" d="M511.38,214.77q-6.18,0-12.3-.38a86.38,86.38,0,0,1-12.74-1.78V139.75a109.45,109.45,0,0,1,11.38-1.47q6.18-.48,11.49-.48a78.08,78.08,0,0,1,13.18,1,31.31,31.31,0,0,1,10.35,3.52,18.49,18.49,0,0,1,6.78,6.56,19.23,19.23,0,0,1,2.44,10q0,9-8.68,14.2,7.15,2.72,9.76,7.37a21.28,21.28,0,0,1,2.6,10.52q0,11.82-8.62,17.78T511.38,214.77Zm-8.56-46.62h8.24q7.8,0,11.16-2a7,7,0,0,0,3.37-6.45q0-4.56-3.47-6.4c-2.32-1.23-5.71-1.84-10.2-1.84-1.44,0-3,0-4.66,0s-3.14.13-4.44.27Zm0,12.91v19.4c1.23.15,2.56.26,4,.33s3,.11,4.77.11q7.59,0,12.25-2.17t4.66-8c0-3.46-1.3-5.94-3.9-7.42s-6.33-2.22-11.17-2.22Z"/><path class="cls-1" d="M588.58,215.32a37.91,37.91,0,0,1-13.67-2.23,25.35,25.35,0,0,1-9.48-6.18,24.5,24.5,0,0,1-5.53-9.43,38.84,38.84,0,0,1-1.79-12.09V138.66H575V184a25.66,25.66,0,0,0,1,7.75,14.36,14.36,0,0,0,2.82,5.21,10,10,0,0,0,4.34,2.87,17.18,17.18,0,0,0,5.58.87,13.64,13.64,0,0,0,10-3.8c2.57-2.52,3.85-6.83,3.85-12.9V138.66h16.91v46.73a38.23,38.23,0,0,1-1.84,12.15A24.9,24.9,0,0,1,612.1,207a25.27,25.27,0,0,1-9.65,6.13A40.08,40.08,0,0,1,588.58,215.32Z"/><path class="cls-1" d="M656.33,200.9a24.21,24.21,0,0,0,5.91-.6,10.83,10.83,0,0,0,3.74-1.63,5.39,5.39,0,0,0,1.95-2.44,8.45,8.45,0,0,0,.55-3.14A7.28,7.28,0,0,0,665,187q-3.48-2.43-11.93-5.25c-2.46-.87-4.91-1.86-7.37-3a26.71,26.71,0,0,1-6.61-4.22,20,20,0,0,1-4.77-6.18,19.35,19.35,0,0,1-1.85-8.84,21.92,21.92,0,0,1,1.95-9.38A20.08,20.08,0,0,1,640,143a25.41,25.41,0,0,1,8.68-4.5,38.8,38.8,0,0,1,11.49-1.57,46.07,46.07,0,0,1,22.22,5.2l-4.87,13.34a45.58,45.58,0,0,0-7-2.87,30.26,30.26,0,0,0-9.27-1.25c-4.05,0-7,.56-8.72,1.68a5.66,5.66,0,0,0-2.66,5.15,5.89,5.89,0,0,0,1,3.47,9.5,9.5,0,0,0,2.76,2.55,24.34,24.34,0,0,0,4.12,2.06q2.32.92,5.15,1.89,5.85,2.17,10.19,4.29a27.3,27.3,0,0,1,7.21,4.93,17.92,17.92,0,0,1,4.28,6.61,26.6,26.6,0,0,1,1.41,9.22q0,10.52-7.37,16.32t-22.23,5.8a61.09,61.09,0,0,1-9-.6,60.14,60.14,0,0,1-7.11-1.46,40.87,40.87,0,0,1-5.31-1.85,39.79,39.79,0,0,1-3.74-1.84L636,196.13a42.13,42.13,0,0,0,8.3,3.3A42.74,42.74,0,0,0,656.33,200.9Z"/><path class="cls-1" d="M733.2,215.32q-18.32,0-27.92-10.2t-9.59-28.94a44.38,44.38,0,0,1,2.93-16.65,35.82,35.82,0,0,1,8-12.35,33.51,33.51,0,0,1,12.14-7.65,43.91,43.91,0,0,1,15.29-2.6,49.91,49.91,0,0,1,8.67.7,59.07,59.07,0,0,1,6.83,1.63,34.45,34.45,0,0,1,4.88,1.9c1.3.65,2.24,1.16,2.82,1.52l-4.88,13.66a40.77,40.77,0,0,0-8.08-3.15,38.83,38.83,0,0,0-10.46-1.3,23.27,23.27,0,0,0-7.64,1.3,17.29,17.29,0,0,0-6.62,4.18,20.74,20.74,0,0,0-4.6,7.42,31.12,31.12,0,0,0-1.74,11.06,39.33,39.33,0,0,0,1.14,9.7,20.55,20.55,0,0,0,3.69,7.76,17.69,17.69,0,0,0,6.66,5.15,23.86,23.86,0,0,0,10,1.89,45.27,45.27,0,0,0,6.61-.43,49,49,0,0,0,5.21-1,28.86,28.86,0,0,0,4-1.35l3.14-1.41,4.66,13.55a39.45,39.45,0,0,1-10.08,3.9A58.61,58.61,0,0,1,733.2,215.32Z"/><path class="cls-1" d="M838,176.18a46.29,46.29,0,0,1-2.87,17,35.06,35.06,0,0,1-7.86,12.26,32.32,32.32,0,0,1-11.87,7.42,43.26,43.26,0,0,1-14.8,2.5,42.05,42.05,0,0,1-14.53-2.5,33.32,33.32,0,0,1-11.93-7.42,34.7,34.7,0,0,1-8-12.26,45.44,45.44,0,0,1-2.93-17,43.9,43.9,0,0,1,3-17,36.19,36.19,0,0,1,8.18-12.31,33.89,33.89,0,0,1,11.93-7.48,41,41,0,0,1,14.26-2.49,42,42,0,0,1,14.52,2.49,33.19,33.19,0,0,1,11.93,7.48,35.27,35.27,0,0,1,8,12.31A45.29,45.29,0,0,1,838,176.18Zm-57.35,0a34.25,34.25,0,0,0,1.35,10A22.93,22.93,0,0,0,786,193.8a17.22,17.22,0,0,0,6.23,4.93,21.4,21.4,0,0,0,16.86,0,17.26,17.26,0,0,0,6.29-4.93,22.92,22.92,0,0,0,3.9-7.65,34.24,34.24,0,0,0,1.36-10,34.81,34.81,0,0,0-1.36-10,22.8,22.8,0,0,0-3.9-7.7,17.15,17.15,0,0,0-6.29-4.93,19.69,19.69,0,0,0-8.4-1.74,19.2,19.2,0,0,0-8.46,1.79,17.71,17.71,0,0,0-6.23,5,22.81,22.81,0,0,0-3.91,7.7A34.39,34.39,0,0,0,780.69,176.18Z"/><path class="cls-1" d="M898.1,138.66q2,3.59,4.51,8.84t5.33,11.38q2.77,6.13,5.49,12.53l5.11,12q2.38-5.64,5.11-12t5.49-12.53q2.76-6.12,5.32-11.38t4.51-8.84h15.4q1.08,7.49,2,16.76T958,174.71q.71,10,1.3,20.11t1,19H943.85q-.32-11-.86-23.85t-1.63-26L937,174q-2.4,5.53-4.73,11.06t-4.51,10.57q-2.17,5-3.7,8.62H912.25q-1.53-3.58-3.7-8.62T904,185.07q-2.34-5.53-4.73-11.06T895,163.93q-1.1,13.11-1.63,26t-.87,23.85H876q.43-8.9,1-19t1.31-20.11q.7-10,1.62-19.29t2-16.76Z"/><path class="cls-1" d="M975.4,138.66h16.92V213.8H975.4Z"/><path class="cls-1" d="M1060.08,213.8q-7.27-12.9-15.72-25.48a259.35,259.35,0,0,0-18-23.74V213.8h-16.7V138.66h13.77q3.58,3.59,7.91,8.79t8.84,11.11q4.5,5.91,9,12.25t8.34,12.2V138.66h16.81V213.8Z"/><path class="cls-1" d="M1136.94,138.66h16.92V213.8h-16.92V181.92h-28.4V213.8h-16.91V138.66h16.91V167.4h28.4Z"/><path class="cls-1" d="M1221.61,213.8q-1.26-3.92-2.7-8.05l-2.87-8.21h-29.35c-1,2.74-1.9,5.48-2.85,8.24s-1.84,5.43-2.66,8h-17.57q4.25-12.15,8.05-22.44t7.45-19.41q3.65-9.1,7.18-17.29t7.34-16h16q3.71,7.82,7.3,16T1224.2,172q3.65,9.11,7.46,19.41t8.06,22.44Zm-20.32-58.11q-.57,1.63-1.66,4.45c-.73,1.88-1.55,4.05-2.48,6.51s-2,5.17-3.11,8.13-2.32,6.06-3.5,9.31H1212q-1.73-4.89-3.34-9.34c-1.07-3-2.1-5.68-3.07-8.14s-1.82-4.63-2.55-6.51S1201.74,156.75,1201.29,155.69Z"/><path class="cls-1" d="M1275.39,213.8V138.66h50.31v14.21h-33.4v15.72H1322v14.2H1292.3v31Z"/><path class="cls-1" d="M1382.82,213.8q-1.24-3.92-2.69-8.05t-2.88-8.21h-29.34l-2.86,8.24c-1,2.75-1.84,5.43-2.66,8h-17.56q4.25-12.15,8-22.44t7.45-19.41q3.65-9.1,7.18-17.29t7.34-16h16q3.7,7.82,7.3,16t7.25,17.29q3.64,9.11,7.46,19.41t8.06,22.44Zm-20.32-58.11c-.37,1.09-.93,2.57-1.65,4.45s-1.56,4.05-2.49,6.51-2,5.17-3.11,8.13-2.31,6.06-3.5,9.31h21.49q-1.73-4.89-3.34-9.34t-3.07-8.14l-2.56-6.51Q1363.18,157.28,1362.5,155.69Z"/><path class="cls-1" d="M1430.53,138.66q2,3.59,4.52,8.84t5.32,11.38q2.78,6.13,5.49,12.53t5.11,12l5.11-12q2.72-6.41,5.49-12.53t5.33-11.38q2.55-5.25,4.51-8.84h15.39q1.1,7.49,2,16.76t1.63,19.29q.69,10,1.3,20.11t1,19h-16.48q-.33-11-.87-23.85t-1.63-26q-1.95,4.55-4.35,10.08t-4.73,11.06q-2.34,5.52-4.51,10.57t-3.7,8.62h-11.82q-1.52-3.58-3.69-8.62t-4.52-10.57q-2.34-5.53-4.73-11.06c-1.59-3.69-3-7-4.35-10.08q-1.08,13.11-1.63,26t-.86,23.85h-16.48q.43-8.9,1-19t1.3-20.11q.7-10,1.62-19.29t2-16.76Z"/><path class="cls-1" d="M1529.74,118.93,1511.9,134l-7.43-6.61,15.35-17.56Zm-21.9,19.73h16.91V213.8h-16.91Z"/><path class="cls-1" d="M1592.29,199.27V213.8h-50.2V138.66H1559v60.61Z"/><path class="cls-1" d="M1603.13,138.66H1620V213.8h-16.91Z"/><path class="cls-1" d="M1687.8,213.8q-1.26-3.92-2.7-8.05l-2.87-8.21h-29.35c-1,2.74-1.9,5.48-2.85,8.24s-1.84,5.43-2.66,8H1629.8q4.25-12.15,8-22.44T1645.3,172q3.65-9.1,7.17-17.29t7.35-16h16q3.7,7.82,7.3,16t7.24,17.29q3.64,9.11,7.46,19.41t8.06,22.44Zm-20.32-58.11q-.57,1.63-1.66,4.45c-.73,1.88-1.55,4.05-2.48,6.51s-2,5.17-3.12,8.13-2.31,6.06-3.49,9.31h21.48q-1.73-4.89-3.34-9.34c-1.07-3-2.1-5.68-3.07-8.14s-1.82-4.63-2.55-6.51S1667.93,156.75,1667.48,155.69Z"/><path class="cls-1" d="M500.35,237.26q11.83,0,17.63,4.51t5.8,12.8a17.68,17.68,0,0,1-1.7,8.09,13.66,13.66,0,0,1-4.83,5.4,21.9,21.9,0,0,1-7.68,3,52.39,52.39,0,0,1-10.27.92h-7.57v21.58h-5.47V238.79a40.63,40.63,0,0,1,6.8-1.17Q497,237.26,500.35,237.26Zm.24,4.75c-2,0-3.77.07-5.19.2l-3.67.37v24.63h6.93a55.64,55.64,0,0,0,8-.52,17.91,17.91,0,0,0,6.12-1.93,9.72,9.72,0,0,0,3.9-3.91,13.14,13.14,0,0,0,1.37-6.36,11.51,11.51,0,0,0-1.49-6.12,11,11,0,0,0-4-3.82,17.07,17.07,0,0,0-5.59-2A36,36,0,0,0,500.59,242Z"/><path class="cls-1" d="M547.77,251.11a29.1,29.1,0,0,1,4.87.4,14.85,14.85,0,0,1,3.18.81l-1.05,4.51a11.19,11.19,0,0,0-2.61-.69,30.16,30.16,0,0,0-5.2-.36,24.73,24.73,0,0,0-5.43.48,15.12,15.12,0,0,0-2.7.81v36.47H533.6V253.85a37.67,37.67,0,0,1,5.55-1.81A34.43,34.43,0,0,1,547.77,251.11Z"/><path class="cls-1" d="M599.21,272.77a26.85,26.85,0,0,1-1.41,8.93,19.93,19.93,0,0,1-3.94,6.85,18,18,0,0,1-6,4.39,19.42,19.42,0,0,1-15.3,0,18,18,0,0,1-6-4.39,20,20,0,0,1-4-6.85,29,29,0,0,1,0-17.87,20.37,20.37,0,0,1,4-6.88,17.75,17.75,0,0,1,6-4.43,19.42,19.42,0,0,1,15.3,0,17.69,17.69,0,0,1,6,4.43,20.36,20.36,0,0,1,3.94,6.88A26.91,26.91,0,0,1,599.21,272.77Zm-5.55,0q0-7.81-3.62-12.44a12.74,12.74,0,0,0-19.65,0q-3.63,4.64-3.62,12.44t3.62,12.4a12.81,12.81,0,0,0,19.65,0Q593.66,280.58,593.66,272.77Z"/><path class="cls-1" d="M610.56,253.36c1.56-.42,3.59-.91,6.08-1.44a47.37,47.37,0,0,1,9.7-.81q7.89,0,11.44,4.59c.26-.21.79-.58,1.57-1.09a21.48,21.48,0,0,1,2.94-1.57,23.62,23.62,0,0,1,4.14-1.37,23.18,23.18,0,0,1,5.28-.56,17.86,17.86,0,0,1,7.68,1.41,10.71,10.71,0,0,1,4.55,3.94,15.91,15.91,0,0,1,2.18,6.08,50.14,50.14,0,0,1,.56,7.73v23.27h-5.23V272a61.08,61.08,0,0,0-.36-7.12,14,14,0,0,0-1.45-5,7.08,7.08,0,0,0-3.1-3,11.78,11.78,0,0,0-5.24-1,20.3,20.3,0,0,0-4.38.44,18.75,18.75,0,0,0-3.43,1.09,14.43,14.43,0,0,0-2.37,1.29c-.62.43-1.06.75-1.33,1a25.1,25.1,0,0,1,1.09,4.71,40.63,40.63,0,0,1,.36,5.52v23.67H636V272a60.87,60.87,0,0,0-.37-7.12,13.18,13.18,0,0,0-1.49-5,7.22,7.22,0,0,0-3.18-3,12.41,12.41,0,0,0-5.43-1,44.19,44.19,0,0,0-6.4.4,16.25,16.25,0,0,0-3.34.73v36.55h-5.24Z"/><path class="cls-1" d="M715.55,272.77a26.85,26.85,0,0,1-1.41,8.93,19.93,19.93,0,0,1-3.94,6.85,18.08,18.08,0,0,1-6,4.39,19.42,19.42,0,0,1-15.3,0,18,18,0,0,1-6-4.39A19.93,19.93,0,0,1,679,281.7a29,29,0,0,1,0-17.87A20.36,20.36,0,0,1,682.9,257a17.69,17.69,0,0,1,6-4.43,19.42,19.42,0,0,1,15.3,0,17.79,17.79,0,0,1,6,4.43,20.36,20.36,0,0,1,3.94,6.88A26.91,26.91,0,0,1,715.55,272.77Zm-5.56,0q0-7.81-3.62-12.44a12.73,12.73,0,0,0-19.64,0q-3.63,4.64-3.63,12.44t3.63,12.4a12.8,12.8,0,0,0,19.64,0Q710,280.58,710,272.77Z"/><path class="cls-1" d="M739.5,287.9c1.13-2.3,2.29-4.95,3.47-7.93s2.33-6.06,3.44-9.25,2.12-6.42,3.06-9.67,1.74-6.29,2.39-9.13h5.23q-1.46,5.72-3.24,11.27t-3.77,10.87q-2,5.31-4.13,10.22t-4.17,9.26H736.9q-2.1-4.35-4.21-9.26t-4.09-10.22q-2-5.32-3.77-10.87t-3.24-11.27h5.55c.65,2.84,1.44,5.89,2.38,9.13s2,6.47,3.07,9.67S734.84,277,736,280,738.37,285.6,739.5,287.9Z"/><path class="cls-1" d="M763.05,272.69a26.35,26.35,0,0,1,1.57-9.54,21.19,21.19,0,0,1,4.11-6.81,16.14,16.14,0,0,1,5.79-4.06,17.63,17.63,0,0,1,6.73-1.33q7.63,0,12.19,5T798,271.32c0,.43,0,.86,0,1.29s-.07.83-.12,1.2H768.61q.24,7.65,3.78,11.76t11.27,4.11a22.63,22.63,0,0,0,6.76-.81,28.37,28.37,0,0,0,3.63-1.37l1,4.51a21.7,21.7,0,0,1-4.22,1.53,26.73,26.73,0,0,1-7.29.89,24.14,24.14,0,0,1-9.34-1.62,16.63,16.63,0,0,1-6.36-4.5,17.91,17.91,0,0,1-3.62-6.89A31.65,31.65,0,0,1,763.05,272.69Zm29.55-3.3q-.17-6.52-3.06-10.15a9.92,9.92,0,0,0-8.21-3.62,11,11,0,0,0-5,1.13,12.83,12.83,0,0,0-3.86,3,14.08,14.08,0,0,0-2.58,4.38,18,18,0,0,0-1.08,5.24Z"/><path class="cls-1" d="M809.66,253.36c1.56-.42,3.65-.91,6.28-1.44a49,49,0,0,1,9.67-.81,20.18,20.18,0,0,1,7.93,1.37,12.14,12.14,0,0,1,5.07,3.9,16.09,16.09,0,0,1,2.7,6.08,35.78,35.78,0,0,1,.8,7.81v23.27h-5.23V272a38.7,38.7,0,0,0-.61-7.48,12.49,12.49,0,0,0-2-5,7.83,7.83,0,0,0-3.7-2.77,16.67,16.67,0,0,0-5.76-.85,45.29,45.29,0,0,0-6.4.4,18.9,18.9,0,0,0-3.5.73v36.55h-5.24Z"/><path class="cls-1" d="M888.56,292.25a45.8,45.8,0,0,1-5.95,1.53,48.36,48.36,0,0,1-9.18.73,22.47,22.47,0,0,1-8.34-1.49,18.16,18.16,0,0,1-6.44-4.31,19.52,19.52,0,0,1-4.18-6.84,26,26,0,0,1-1.49-9.1,28.89,28.89,0,0,1,1.25-8.74,19.89,19.89,0,0,1,3.66-6.88,16.6,16.6,0,0,1,5.92-4.51,19,19,0,0,1,8-1.61,19.64,19.64,0,0,1,7.12,1.17,18.45,18.45,0,0,1,4.39,2.21V232l5.23-1Zm-5.23-32.77a18.92,18.92,0,0,0-1.81-1.2,16.75,16.75,0,0,0-2.54-1.21,19.61,19.61,0,0,0-3.14-.93,16.93,16.93,0,0,0-3.54-.36,13.87,13.87,0,0,0-6.48,1.37,11.75,11.75,0,0,0-4.23,3.66,15.38,15.38,0,0,0-2.33,5.4,28.3,28.3,0,0,0-.73,6.56q0,8.21,4.11,12.6a14.21,14.21,0,0,0,10.87,4.39,41.75,41.75,0,0,0,6.24-.37,22.81,22.81,0,0,0,3.58-.76Z"/><path class="cls-1" d="M937.92,272.77a26.85,26.85,0,0,1-1.41,8.93,20,20,0,0,1-4,6.85,18,18,0,0,1-6,4.39,19.42,19.42,0,0,1-15.3,0,18,18,0,0,1-6-4.39,19.77,19.77,0,0,1-3.94-6.85,29,29,0,0,1,0-17.87,20.19,20.19,0,0,1,3.94-6.88,17.69,17.69,0,0,1,6-4.43,19.42,19.42,0,0,1,15.3,0,17.75,17.75,0,0,1,6,4.43,20.37,20.37,0,0,1,4,6.88A26.91,26.91,0,0,1,937.92,272.77Zm-5.56,0q0-7.81-3.62-12.44a12.74,12.74,0,0,0-19.65,0q-3.62,4.64-3.62,12.44t3.62,12.4a12.81,12.81,0,0,0,19.65,0Q932.36,280.58,932.36,272.77Z"/><path class="cls-1" d="M981.79,251.11a29,29,0,0,1,4.87.4,15.16,15.16,0,0,1,3.19.81l-1.05,4.51a11.17,11.17,0,0,0-2.62-.69,30,30,0,0,0-5.19-.36,24.77,24.77,0,0,0-5.44.48,15.21,15.21,0,0,0-2.69.81v36.47h-5.24V253.85a37.86,37.86,0,0,1,5.56-1.81A34.34,34.34,0,0,1,981.79,251.11Z"/><path class="cls-1" d="M995.24,272.69a26.35,26.35,0,0,1,1.57-9.54,21,21,0,0,1,4.11-6.81,16.14,16.14,0,0,1,5.79-4.06,17.62,17.62,0,0,1,6.72-1.33q7.65,0,12.2,5t4.55,15.38c0,.43,0,.86,0,1.29s-.07.83-.12,1.2h-29.23q.26,7.65,3.79,11.76t11.27,4.11a22.63,22.63,0,0,0,6.76-.81,28.37,28.37,0,0,0,3.63-1.37l1,4.51a21.6,21.6,0,0,1-4.23,1.53,26.6,26.6,0,0,1-7.28.89,24.14,24.14,0,0,1-9.34-1.62,16.63,16.63,0,0,1-6.36-4.5,17.91,17.91,0,0,1-3.62-6.89A31.65,31.65,0,0,1,995.24,272.69Zm29.55-3.3q-.16-6.52-3.06-10.15a9.92,9.92,0,0,0-8.21-3.62,11,11,0,0,0-5,1.13,12.83,12.83,0,0,0-3.86,3,14.08,14.08,0,0,0-2.58,4.38,18,18,0,0,0-1.08,5.24Z"/><path class="cls-1" d="M1039.36,272.69a26.35,26.35,0,0,1,1.57-9.54,21,21,0,0,1,4.1-6.81,16.18,16.18,0,0,1,5.8-4.06,17.58,17.58,0,0,1,6.72-1.33q7.65,0,12.2,5t4.55,15.38c0,.43,0,.86,0,1.29s-.07.83-.12,1.2h-29.23q.24,7.65,3.79,11.76t11.27,4.11a22.63,22.63,0,0,0,6.76-.81,27.51,27.51,0,0,0,3.62-1.37l1,4.51a21.6,21.6,0,0,1-4.23,1.53,26.6,26.6,0,0,1-7.28.89,24.11,24.11,0,0,1-9.34-1.62,16.63,16.63,0,0,1-6.36-4.5,17.93,17.93,0,0,1-3.63-6.89A32,32,0,0,1,1039.36,272.69Zm29.55-3.3q-.17-6.52-3.06-10.15a9.94,9.94,0,0,0-8.22-3.62,11,11,0,0,0-5,1.13,12.71,12.71,0,0,0-3.86,3,14.08,14.08,0,0,0-2.58,4.38,18.05,18.05,0,0,0-1.09,5.24Z"/><path class="cls-1" d="M1086,253.36c1.56-.42,3.65-.91,6.28-1.44a49,49,0,0,1,9.67-.81,20.12,20.12,0,0,1,7.92,1.37,12.24,12.24,0,0,1,5.08,3.9,15.92,15.92,0,0,1,2.69,6.08,35.15,35.15,0,0,1,.81,7.81v23.27h-5.23V272a38.7,38.7,0,0,0-.61-7.48,12.49,12.49,0,0,0-2-5,7.83,7.83,0,0,0-3.7-2.77,16.67,16.67,0,0,0-5.76-.85,45.29,45.29,0,0,0-6.4.4,18.9,18.9,0,0,0-3.5.73v36.55H1086Z"/><path class="cls-1" d="M1149,294.43a22.38,22.38,0,0,1-8.53-1.53,16.14,16.14,0,0,1-6.16-4.39,19.65,19.65,0,0,1-3.75-6.85,30.95,30.95,0,0,1,0-17.75,20.12,20.12,0,0,1,3.83-6.92,16.87,16.87,0,0,1,6-4.47,19.41,19.41,0,0,1,8-1.57,34.09,34.09,0,0,1,6.32.56,16.12,16.12,0,0,1,4.55,1.45l-1.37,4.51a16.75,16.75,0,0,0-3.62-1.29,24.25,24.25,0,0,0-5.4-.48q-6.93,0-10.51,4.47t-3.58,12.68a26.81,26.81,0,0,0,.81,6.8,13.74,13.74,0,0,0,2.61,5.32,12.34,12.34,0,0,0,4.67,3.46,17.44,17.44,0,0,0,7,1.25,18.11,18.11,0,0,0,5.67-.77,22,22,0,0,0,3.34-1.33l1.13,4.51a19.51,19.51,0,0,1-4.55,1.57A26.87,26.87,0,0,1,1149,294.43Z"/><path class="cls-1" d="M1204.32,272.77a26.85,26.85,0,0,1-1.41,8.93,19.93,19.93,0,0,1-3.94,6.85,18,18,0,0,1-6,4.39,19.42,19.42,0,0,1-15.3,0,18.08,18.08,0,0,1-6-4.39,19.93,19.93,0,0,1-3.94-6.85,29,29,0,0,1,0-17.87,20.36,20.36,0,0,1,3.94-6.88,17.79,17.79,0,0,1,6-4.43,19.42,19.42,0,0,1,15.3,0,17.69,17.69,0,0,1,6,4.43,20.36,20.36,0,0,1,3.94,6.88A26.91,26.91,0,0,1,1204.32,272.77Zm-5.55,0q0-7.81-3.63-12.44a12.73,12.73,0,0,0-19.64,0q-3.63,4.64-3.62,12.44t3.62,12.4a12.8,12.8,0,0,0,19.64,0Q1198.77,280.58,1198.77,272.77Z"/><path class="cls-1" d="M1215.67,253.36c1.56-.42,3.65-.91,6.28-1.44a48.94,48.94,0,0,1,9.66-.81,20.14,20.14,0,0,1,7.93,1.37,12.24,12.24,0,0,1,5.08,3.9,15.92,15.92,0,0,1,2.69,6.08,35.15,35.15,0,0,1,.81,7.81v23.27h-5.23V272a39.51,39.51,0,0,0-.61-7.48,12.49,12.49,0,0,0-2-5,7.86,7.86,0,0,0-3.71-2.77,16.57,16.57,0,0,0-5.75-.85,45.29,45.29,0,0,0-6.4.4,18.9,18.9,0,0,0-3.5.73v36.55h-5.24Z"/><path class="cls-1" d="M1266.39,251.92H1283v4.42h-16.59v22.14a22.52,22.52,0,0,0,.61,5.76,8,8,0,0,0,1.73,3.42,5.44,5.44,0,0,0,2.74,1.61,14.46,14.46,0,0,0,3.54.41,15.22,15.22,0,0,0,5.31-.77,23.08,23.08,0,0,0,3.14-1.41l1.29,4.35a21.34,21.34,0,0,1-10.06,2.58,18.14,18.14,0,0,1-6.48-1,9.35,9.35,0,0,1-4.19-3.06,12.51,12.51,0,0,1-2.22-5.11,35.63,35.63,0,0,1-.64-7.25V239.68l5.23-1Z"/><path class="cls-1" d="M1306.81,251.11a29,29,0,0,1,4.87.4,14.85,14.85,0,0,1,3.18.81l-1,4.51a11.19,11.19,0,0,0-2.61-.69,30.16,30.16,0,0,0-5.2-.36,24.73,24.73,0,0,0-5.43.48,15.12,15.12,0,0,0-2.7.81v36.47h-5.23V253.85a37.67,37.67,0,0,1,5.55-1.81A34.48,34.48,0,0,1,1306.81,251.11Z"/><path class="cls-1" d="M1358.26,272.77a26.85,26.85,0,0,1-1.41,8.93,20,20,0,0,1-3.95,6.85,18,18,0,0,1-6,4.39,19.4,19.4,0,0,1-15.29,0,18,18,0,0,1-6-4.39,20,20,0,0,1-3.95-6.85,29,29,0,0,1,0-17.87,20.37,20.37,0,0,1,3.95-6.88,17.69,17.69,0,0,1,6-4.43,19.4,19.4,0,0,1,15.29,0,17.69,17.69,0,0,1,6,4.43,20.37,20.37,0,0,1,3.95,6.88A26.91,26.91,0,0,1,1358.26,272.77Zm-5.56,0q0-7.81-3.62-12.44a12.74,12.74,0,0,0-19.65,0q-3.62,4.64-3.62,12.44t3.62,12.4a12.81,12.81,0,0,0,19.65,0Q1352.7,280.58,1352.7,272.77Z"/><path class="cls-1" d="M1378.14,289.84a16.46,16.46,0,0,0,7.45-1.49,5.2,5.2,0,0,0,2.94-5,7.22,7.22,0,0,0-.53-2.9,5.69,5.69,0,0,0-1.73-2.18,14.75,14.75,0,0,0-3.18-1.85c-1.31-.59-2.94-1.29-4.87-2.09-1.56-.65-3-1.3-4.43-2a17.92,17.92,0,0,1-3.7-2.33,10.19,10.19,0,0,1-2.58-3.18,9.7,9.7,0,0,1-1-4.51,10.1,10.1,0,0,1,3.82-8.21q3.83-3.14,10.51-3.14a28.7,28.7,0,0,1,7,.72,23.59,23.59,0,0,1,3.91,1.29l-1.21,4.67a32.1,32.1,0,0,0-3.26-1.29,21.64,21.64,0,0,0-6.72-.8,15,15,0,0,0-3.35.36,8.81,8.81,0,0,0-2.77,1.13,6,6,0,0,0-1.93,1.94,5.26,5.26,0,0,0-.73,2.86,6.13,6.13,0,0,0,.64,2.91,6.35,6.35,0,0,0,1.9,2.13,15.51,15.51,0,0,0,3.06,1.73c1.2.54,2.59,1.13,4.14,1.77s3.16,1.29,4.63,2a17.07,17.07,0,0,1,3.91,2.41,11.2,11.2,0,0,1,2.73,3.38,10.49,10.49,0,0,1,1.05,4.95,9.69,9.69,0,0,1-4.23,8.54c-2.81,1.93-6.67,2.9-11.55,2.9a28.86,28.86,0,0,1-8.37-.93,34.17,34.17,0,0,1-3.87-1.41l1.37-4.75a8.22,8.22,0,0,0,1,.52,20.5,20.5,0,0,0,2.17.81,22.27,22.27,0,0,0,3.26.76A25.84,25.84,0,0,0,1378.14,289.84Z"/><circle class="cls-2" cx="213.97" cy="214.59" r="213.47"/><path class="cls-3" d="M33.34,327.78c-11.71-19.48-21-40-26.49-62.13A212.77,212.77,0,0,1,165.22,6.32c2.25-.53,4.13-.5,6,1.25,19.06,18.21,34.71,38.69,41.92,64.5,8.81,31.55,1.38,60.17-16.65,86.65-1.69,2.47-3.52,4.85-5.32,7.24a7.78,7.78,0,0,1-1.38,1.08c-6.2-13.12-13.89-25-24.18-35.15-23.65-23.33-55.86-26.46-83.37-7.74-5.64,3.83-10.93,8.17-16.3,12.37s-9.5,9.67-13.29,15.81c-1.34-1.89-2.39-3.59-3.67-5.09s-1.3-2.62.34-4.08c3.34-3,3.41-7,2.91-11.1-.17-1.42-.17-3.39-1.73-3.7s-2.57,1.29-3.55,2.41c-2.32,2.65-2.38,6.06-2.9,9.39-1.88-.52-2.43-2.33-3.72-3.31-2.6-2-3.79-3.85-1.5-7.36,1.8-2.77,1-6.5-.48-9.64-.65-1.41-.91-3.72-2.82-3.5-1.59.18-2.52,2.16-3,3.74-1.62,5.71-.26,10.84,3.5,15.33,2.21,2.63,5,4.74,7,8.38-5.69-.77-9.55,1.82-13,5.48-1.91,2.05-1.34,3.06,1.07,3.6,4.68,1,8.76-.31,11.59-4,2.43-3.2,3.46-1.78,5.32.49,2.93,3.59,4.09,7.1.77,11.35,11.66.45,7.27,10.7,11,16.87a14.4,14.4,0,0,0-.05-8.21c-.58-2.36-1.29-4.69-2.09-7.56,12.88,1.38,23.21,6.64,30.13,17,8.74,13.1,12,27.7,8.26,43.25-7.82,32.58,3.81,63.13,32.39,83.93,20,14.57,42.93,22.31,66.72,27.92,2.91.69,5.83,1.76,8.77,1.84,7.22.19,11.58,4,15.55,9.71,13.79,19.73,26.21,40.09,32.14,63.75.72,2.9,1.18,5.87,1.76,8.81.4,5.31,0,6.17-5.13,7.14a171.56,171.56,0,0,1-40.21,2.73,276.78,276.78,0,0,1-46.76-6.19c-18.31-4.29-35.44-11.51-51.81-20.73-4.45-2.51-8.73-5.38-13.52-7.27-15.48-10.09-29.82-21.49-41.59-35.92C46.62,348.26,39.06,338.67,33.34,327.78Z"/><path class="cls-4" d="M95.65,130.52a6.8,6.8,0,1,1,.21,13.59c-4.12-.09-6.47-2.3-6.75-6.43A6.42,6.42,0,0,1,95.65,130.52Z"/><circle class="cls-5" cx="213.97" cy="214.59" r="213.47"/><path class="cls-6" d="M366.51,344.4c-18.2-1.17-36-4.2-52.86-11.49-34.27-14.82-51.82-44.14-48.84-81.26.24-2.91,1.65-4.85,3.43-6.9,19.08-21.93,34.47-46.08,43.4-73.94,15.65-48.84,2.92-92.58-36.32-125.73A207.12,207.12,0,0,0,236,18.71c-8.05-4.12-17.13-5.19-25.73-7.7S192.71,6.21,184,3.47a180,180,0,0,1,44.09-1.94c34.51,2.37,66.41,13,96.11,30.5A151.49,151.49,0,0,1,357,55c9.64,8.61,18.74,17.86,26.38,28.4,6,8.68,11.82,17.47,17.23,26.53,7.15,14.55,14.06,29.18,18.65,44.79a30,30,0,0,1,1.48,5.75c4.37,20,6.9,40.12,6.51,60.63-.52,27.65-6.87,53.93-17.86,79.19a209.48,209.48,0,0,1-22.54,39.28c-2.54,3.52-5.18,5.7-9.88,5C373.55,344,370,344.5,366.51,344.4Z"/></g></g></svg>